<svg version="1.0" xmlns="http://www.w3.org/2000/svg"
 width="485.000000pt" height="343.000000pt" viewBox="0 0 485.000000 343.000000"
 preserveAspectRatio="xMidYMid meet">
<title>Brand</title>
<g transform="translate(0.000000,343.000000) scale(0.100000,-0.100000)"
fill="#ffffff" stroke="none">
<path d="M1400 3260 c-19 -10 -54 -26 -78 -36 -25 -10 -41 -22 -38 -29 2 -7
-1 -18 -7 -24 -8 -8 -6 -15 9 -26 16 -13 17 -16 4 -25 -18 -12 -30 -13 -31 -2
0 4 -2 17 -3 29 -3 28 -16 43 -16 20 0 -15 -3 -15 -20 -5 -27 17 -25 28 5 28
30 0 34 26 5 35 -11 3 -20 10 -20 15 0 5 -12 2 -27 -6 -38 -19 -60 -18 -90 6
-35 27 -43 25 -43 -12 -1 -29 -2 -31 -13 -16 -18 23 -59 26 -90 5 -30 -20 -49
-21 -63 -7 -8 8 -20 7 -40 -2 -35 -15 -44 -26 -44 -55 0 -19 -6 -23 -29 -23
-17 0 -33 -5 -37 -11 -4 -6 -20 -8 -39 -5 -51 10 -66 0 -63 -45 2 -21 8 -39
14 -39 7 0 14 -7 18 -15 3 -8 12 -15 20 -15 7 0 16 -7 20 -15 3 -8 17 -20 31
-25 17 -6 25 -17 25 -33 0 -21 -4 -23 -36 -19 -33 4 -36 3 -29 -17 6 -20 -10
-31 -17 -12 -4 13 -28 16 -59 7 -17 -5 -43 0 -78 13 -48 20 -54 20 -83 5 -17
-9 -40 -13 -55 -9 -23 5 -24 3 -21 -27 2 -27 -1 -34 -18 -36 -23 -3 -41 33
-22 44 11 7 -9 24 -27 24 -13 0 -45 -57 -45 -80 0 -10 -8 -26 -17 -35 -16 -16
-18 -16 -30 1 -12 16 -15 17 -23 4 -11 -17 5 -30 37 -30 31 0 53 -10 53 -24 0
-7 11 -23 25 -36 14 -13 25 -30 25 -37 0 -17 -29 -47 -55 -58 -18 -7 -17 -9
10 -16 17 -4 42 -11 57 -14 17 -3 28 -12 29 -23 0 -14 3 -13 16 6 15 21 17 22
34 6 11 -10 19 -25 19 -34 0 -10 7 -34 15 -54 9 -20 13 -41 11 -45 -3 -4 1
-17 9 -27 21 -28 19 -47 -5 -41 -10 3 -21 0 -24 -7 -3 -7 -5 -6 -5 2 -1 7 -7
20 -13 27 -7 8 -19 21 -26 30 -16 19 -52 20 -52 0 0 -8 -4 -15 -8 -15 -5 0 -9
-13 -9 -30 0 -34 -7 -45 -23 -35 -6 4 -8 16 -5 28 5 16 4 18 -3 8 -6 -7 -15
-10 -22 -6 -9 5 -10 2 -6 -13 4 -11 2 -23 -5 -27 -8 -6 -8 -9 1 -15 7 -4 9
-16 5 -29 -6 -21 -25 -29 -25 -11 0 6 -7 10 -16 10 -11 0 -14 -5 -10 -16 3 -9
6 -18 6 -20 0 -2 10 -4 23 -4 13 0 28 -5 34 -11 7 -7 27 -13 46 -14 28 -1 34
1 30 14 -5 12 -3 13 6 5 13 -12 6 -41 -12 -47 -7 -2 0 -2 15 0 33 5 39 -19 10
-36 -9 -6 -12 -11 -7 -11 6 0 11 -8 11 -19 0 -10 -6 -17 -12 -14 -7 2 -21 -6
-33 -18 -23 -25 -26 -35 -12 -43 5 -3 7 -15 4 -26 -4 -14 0 -20 10 -20 11 0
13 6 10 21 -4 16 -2 20 8 17 8 -3 13 -13 13 -22 -1 -9 6 -16 17 -16 10 0 21
-4 24 -10 3 -5 23 -10 43 -10 102 0 101 1 232 -171 135 -178 194 -284 186
-337 -7 -45 -92 -196 -137 -244 -20 -21 -44 -38 -54 -38 -11 0 -15 -5 -11 -15
3 -9 0 -15 -9 -15 -22 0 -65 -63 -90 -135 -12 -36 -25 -69 -29 -72 -3 -3 -14
1 -25 11 -14 13 -24 14 -45 7 -14 -6 -26 -15 -26 -20 0 -5 -15 -23 -32 -40
-27 -27 -31 -34 -20 -49 6 -9 19 -30 28 -47 9 -16 36 -51 61 -76 37 -38 44
-51 38 -70 -7 -23 -6 -23 7 -5 14 18 16 14 32 -50 10 -38 28 -103 41 -144 23
-75 23 -121 1 -139 -10 -8 -99 -20 -196 -25 -64 -3 -106 -16 -88 -27 7 -5 26
-9 41 -9 16 0 38 -5 50 -12 12 -7 33 -13 47 -14 65 -6 239 -25 271 -30 20 -3
98 1 175 9 159 18 167 18 212 18 17 0 32 5 32 10 0 5 5 9 11 9 5 0 7 -5 4 -11
-5 -7 4 -9 27 -5 18 3 62 8 98 12 36 3 74 8 85 10 11 2 39 6 63 10 46 7 67 24
30 24 -18 0 -20 2 -8 10 19 12 15 13 -90 14 -55 1 -103 10 -180 34 -58 19
-113 38 -122 43 -10 5 -24 9 -31 9 -8 0 -34 15 -58 32 -24 18 -53 37 -64 43
-11 6 -25 21 -32 35 -107 217 -131 270 -137 297 -4 18 -12 31 -18 30 -6 -1
-13 4 -15 11 -3 7 4 12 16 12 12 0 21 5 21 10 0 6 -4 10 -8 10 -19 0 -9 39 27
115 21 44 51 107 67 140 45 97 241 276 419 384 56 34 148 68 260 97 89 22 95
27 46 33 -25 3 -46 11 -48 17 -2 5 11 26 28 45 17 18 41 50 54 69 31 49 98 94
130 88 34 -7 42 8 9 16 -21 6 -24 9 -14 21 9 10 33 15 79 15 112 1 139 11 201
79 30 33 68 65 83 71 44 16 222 13 264 -5 44 -19 49 -19 33 -1 -20 26 -104 46
-189 48 -78 1 -86 -2 -174 -45 -102 -50 -142 -62 -152 -46 -9 14 33 59 55 59
33 0 123 32 111 39 -6 4 26 17 76 29 79 20 89 21 100 6 7 -10 13 -11 18 -5 3
6 16 11 29 11 12 0 28 6 35 13 11 10 14 10 18 0 3 -7 12 -13 20 -13 9 0 30 -9
48 -20 28 -17 34 -18 39 -5 3 8 0 15 -7 15 -16 1 22 30 54 42 20 7 25 14 22
29 -3 10 0 19 6 19 6 0 11 -6 11 -14 0 -9 8 -12 25 -8 14 2 32 -1 40 -8 12
-10 18 -8 34 11 14 18 22 21 32 12 8 -6 19 -12 24 -12 6 -1 10 -9 11 -19 0 -9
5 -27 12 -39 7 -12 12 -29 12 -37 0 -8 5 -27 12 -41 l11 -25 28 26 c23 22 26
29 16 45 -7 11 -22 19 -33 19 -17 0 -21 5 -17 20 3 12 -2 29 -13 41 -19 21
-19 21 1 17 11 -2 19 -10 17 -16 -3 -17 5 -15 28 8 25 25 56 25 114 -1 59 -26
97 -21 46 6 -20 10 -29 20 -22 23 10 3 10 7 1 18 -16 20 -3 30 15 11 8 -8 12
-17 9 -21 -4 -3 3 -6 15 -6 12 0 22 6 22 13 0 6 16 23 36 37 32 21 34 25 18
31 -11 4 -41 8 -68 8 -29 1 -46 5 -40 10 14 13 74 22 74 11 0 -6 5 -10 11 -10
6 0 8 9 4 21 -5 16 -3 20 6 17 8 -3 13 -12 11 -22 -2 -9 4 -16 11 -16 16 0 27
21 27 52 0 16 -5 19 -25 16 -14 -3 -25 -1 -25 3 0 5 -11 9 -25 9 -26 0 -30 6
-16 28 7 11 14 11 43 -1 20 -8 39 -20 43 -26 5 -9 10 -9 20 -1 7 6 28 9 46 8
29 -3 35 -7 39 -32 7 -38 29 -47 23 -9 -3 27 -3 27 8 6 7 -13 25 -28 40 -35
16 -7 29 -19 29 -27 0 -11 3 -11 15 -1 12 10 13 15 4 20 -15 10 -1 33 16 26
16 -6 40 47 31 69 -3 8 -1 15 4 15 6 0 10 7 10 15 0 13 -4 14 -21 4 -17 -9
-24 -7 -40 10 -25 26 -24 52 2 85 11 14 18 30 15 35 -9 14 21 21 121 28 51 3
93 9 93 13 0 4 -11 15 -24 24 -13 8 -27 30 -31 48 -4 18 -14 43 -23 56 l-15
23 48 -4 c37 -3 49 0 58 15 10 15 25 18 92 18 45 0 86 -5 92 -11 17 -17 102 9
120 38 19 29 14 35 -32 35 -28 0 -41 6 -57 29 -26 34 -34 36 -41 9 -6 -24 -57
-29 -57 -6 0 9 -7 12 -20 9 -13 -4 -20 0 -20 10 0 9 -17 19 -46 26 -50 13 -84
7 -84 -14 0 -7 -10 -15 -22 -19 -34 -9 -36 -8 -43 14 -5 15 -15 20 -45 20 -31
0 -38 -3 -34 -15 5 -12 -5 -15 -60 -15 -52 0 -66 3 -66 15 0 8 -4 15 -10 15
-5 0 -10 5 -10 10 0 6 11 10 24 10 30 0 56 9 56 21 0 4 -7 6 -15 3 -9 -4 -15
0 -15 10 0 12 -7 14 -29 10 -25 -5 -30 -3 -33 17 -2 20 -8 23 -30 21 -22 -3
-28 1 -28 16 0 12 -9 22 -23 26 -17 4 -23 13 -25 37 -3 34 -31 95 -32 68 0
-23 -36 -53 -55 -46 -10 5 -19 -4 -29 -28 -8 -19 -22 -35 -30 -35 -9 0 -16 -6
-16 -12 -1 -22 -37 -58 -58 -58 -10 0 -27 9 -37 20 -24 27 -68 23 -73 -5 -6
-29 -24 -49 -32 -35 -4 7 -16 6 -36 -5 -33 -17 -84 -20 -84 -4 0 6 -8 8 -18 5
-10 -4 -27 1 -38 9 -10 8 -27 15 -36 15 -10 0 -18 7 -18 16 0 12 -5 14 -17 9
-30 -13 -56 -11 -61 4 -3 10 0 12 12 8 10 -4 16 -1 16 8 0 9 -6 12 -17 8 -13
-5 -15 -2 -10 11 5 11 -2 26 -21 43 -17 17 -21 24 -9 20 9 -4 17 -2 17 4 0 6
7 8 16 5 24 -9 47 13 33 31 -10 11 -16 11 -37 -3 -31 -20 -100 -23 -112 -4 -7
11 -12 7 -22 -16 -13 -29 -29 -46 -37 -39 -2 3 1 11 8 18 8 11 7 18 -7 29 -23
21 -59 31 -66 19 -4 -6 -18 -6 -38 0 -24 7 -34 5 -40 -5 -4 -8 -18 -11 -32 -9
-26 5 -38 -9 -50 -59 -4 -18 -1 -32 10 -42 21 -21 12 -20 -38 4 -26 12 -45 17
-51 11 -6 -6 -16 -6 -26 -1 -9 5 -31 13 -49 19 -26 8 -34 7 -39 -4 -9 -25 -31
-17 -35 13 -2 21 -9 28 -30 30 -16 2 -30 11 -33 23 -7 22 -18 24 -44 7 -14 -9
-26 -8 -50 2 -17 7 -31 16 -31 20 0 13 -66 40 -97 40 -15 -1 -44 -9 -63 -20z
m-10 -59 c0 -14 -6 -17 -25 -13 -36 6 -31 32 7 32 11 0 18 -7 18 -19z m60 9
c0 -5 -7 -10 -15 -10 -8 0 -15 5 -15 10 0 6 7 10 15 10 8 0 15 -4 15 -10z
m230 -28 c0 -15 -2 -15 -10 -2 -13 20 -13 33 0 25 6 -3 10 -14 10 -23z m-170
8 c0 -5 -2 -10 -4 -10 -3 0 -8 5 -11 10 -3 6 -1 10 4 10 6 0 11 -4 11 -10z
m-575 -20 c-3 -5 -14 -10 -23 -10 -15 0 -15 2 -2 10 20 13 33 13 25 0z m1153
-8 c2 -7 -2 -10 -12 -6 -9 3 -16 11 -16 16 0 13 23 5 28 -10z m-912 -29 c-11
-11 -19 6 -11 24 8 17 8 17 12 0 3 -10 2 -21 -1 -24z m845 -6 c-13 -13 -15 1
-4 30 7 17 8 17 11 -1 2 -10 -1 -23 -7 -29z m992 16 c7 -37 1 -44 -27 -32 -32
15 -33 59 -1 59 17 0 24 -7 28 -27z m-1533 7 c0 -5 -4 -10 -10 -10 -5 0 -10 5
-10 10 0 6 5 10 10 10 6 0 10 -4 10 -10z m154 -5 c-4 -8 -11 -12 -16 -9 -6 4
-5 10 3 15 19 12 19 11 13 -6z m701 5 c4 -6 2 -17 -4 -24 -6 -7 -9 -21 -5 -30
6 -16 3 -16 -45 -7 -2 1 2 8 9 16 6 8 9 19 5 25 -3 5 -3 15 0 20 8 13 32 13
40 0z m-1460 -28 c-8 -8 -25 10 -19 20 4 6 9 5 15 -3 4 -7 6 -15 4 -17z m231
13 c-5 -13 5 -20 27 -16 4 1 13 -10 19 -24 9 -20 9 -28 -2 -38 -10 -10 -12 -8
-7 10 4 17 0 24 -17 29 -32 10 -52 54 -25 54 6 0 9 -7 5 -15z m221 -17 c-3 -8
-6 -5 -6 6 -1 11 2 17 5 13 3 -3 4 -12 1 -19z m1623 2 c0 -5 -4 -10 -10 -10
-5 0 -10 5 -10 10 0 6 5 10 10 10 6 0 10 -4 10 -10z m-1860 -21 c0 -5 -9 -9
-20 -9 -11 0 -20 6 -20 14 0 9 7 12 20 9 11 -3 20 -9 20 -14z m160 11 c0 -5
-2 -10 -4 -10 -3 0 -8 5 -11 10 -3 6 -1 10 4 10 6 0 11 -4 11 -10z m380 -6 c0
-2 -9 -8 -20 -14 -17 -9 -20 -8 -20 9 0 14 5 18 20 14 11 -3 20 -7 20 -9z
m-120 -14 c0 -11 -4 -20 -10 -20 -5 0 -10 9 -10 20 0 11 5 20 10 20 6 0 10 -9
10 -20z m155 10 c3 -5 1 -10 -4 -10 -6 0 -11 5 -11 10 0 6 2 10 4 10 3 0 8 -4
11 -10z m-649 -25 c18 -13 17 -14 -13 -12 -19 1 -33 7 -33 15 0 16 22 15 46
-3z m316 -7 c-7 -7 -12 -8 -12 -2 0 14 12 26 19 19 2 -3 -1 -11 -7 -17z m1698
1 c7 -11 10 -21 8 -22 -44 -22 -63 -36 -60 -45 3 -19 -15 -14 -22 5 -5 11 0
23 12 33 11 8 22 23 25 33 8 23 24 22 37 -4z m-2171 -31 c1 -5 -6 -8 -14 -8
-8 0 -15 -4 -15 -10 0 -5 -4 -10 -10 -10 -15 0 -12 17 7 47 16 23 17 24 24 7
4 -11 8 -22 8 -26z m1364 26 c9 -3 17 -15 17 -27 0 -39 15 -50 28 -22 6 14 17
25 24 25 7 0 23 3 36 6 17 5 22 2 22 -14 0 -11 -8 -23 -18 -27 -11 -3 -24 -17
-30 -30 -13 -28 -30 -32 -38 -10 -4 8 -10 12 -15 9 -14 -8 -92 18 -112 38 -10
10 -22 18 -27 18 -19 0 -10 27 13 38 20 10 54 8 100 -4z m877 1 c0 -8 -7 -15
-15 -15 -8 0 -15 7 -15 15 0 8 7 15 15 15 8 0 15 -7 15 -15z m-2180 -5 c0 -5
-9 -10 -20 -10 -11 0 -20 5 -20 10 0 6 9 10 20 10 11 0 20 -4 20 -10z m2040 2
c0 -13 -12 -22 -22 -16 -10 6 -1 24 13 24 5 0 9 -4 9 -8z m-522 -24 c-5 -32
-28 -35 -28 -4 0 17 5 26 16 26 10 0 14 -7 12 -22z m-1138 -9 c0 -17 -3 -19
-13 -10 -8 6 -17 8 -20 5 -9 -9 -28 6 -22 17 4 5 17 9 31 9 18 0 24 -5 24 -21z
m566 -6 c0 -16 3 -40 7 -55 7 -25 5 -28 -18 -28 -20 0 -30 9 -47 44 -13 28
-26 42 -35 39 -7 -3 -13 0 -13 7 0 6 4 9 9 5 5 -3 12 -1 16 5 3 5 23 10 44 10
35 0 38 -2 37 -27z m204 17 c0 -5 -5 -10 -11 -10 -5 0 -7 5 -4 10 3 6 8 10 11
10 2 0 4 -4 4 -10z m852 -12 c-6 -6 -16 -7 -22 -3 -9 6 -9 9 1 16 17 10 34 0
21 -13z m-1735 -4 c1 -5 -2 -16 -7 -24 -12 -20 -33 0 -24 24 7 17 25 17 31 0z
m1618 1 c0 -5 -22 -11 -49 -13 -45 -3 -48 -2 -36 13 15 18 85 18 85 0z m-1275
-5 c0 -5 -4 -10 -10 -10 -5 0 -10 5 -10 10 0 6 5 10 10 10 6 0 10 -4 10 -10z
m-590 -4 c0 -3 -4 -8 -10 -11 -5 -3 -10 -1 -10 4 0 6 5 11 10 11 6 0 10 -2 10
-4z m430 0 c0 -3 -4 -8 -10 -11 -5 -3 -10 -1 -10 4 0 6 5 11 10 11 6 0 10 -2
10 -4z m1718 -30 c-20 -19 -30 -9 -17 16 8 14 14 17 21 10 8 -8 6 -15 -4 -26z
m-2190 14 c6 0 12 -4 12 -9 0 -13 -51 -20 -77 -10 -20 7 -23 6 -21 -9 3 -18
-30 -25 -34 -7 -4 15 64 46 87 40 11 -2 26 -5 33 -5z m1682 -16 c0 -8 -4 -14
-10 -14 -5 0 -10 9 -10 21 0 11 5 17 10 14 6 -3 10 -13 10 -21z m-1075 6 c-3
-5 -10 -10 -16 -10 -5 0 -9 5 -9 10 0 6 7 10 16 10 8 0 12 -4 9 -10z m1389 2
c3 -5 3 -25 -1 -45 -5 -32 -7 -34 -24 -24 -11 7 -19 18 -19 25 0 7 -4 10 -10
7 -13 -8 -13 1 2 25 13 20 43 27 52 12z m-1784 -6 c0 -3 -4 -8 -10 -11 -5 -3
-10 -1 -10 4 0 6 5 11 10 11 6 0 10 -2 10 -4z m300 -6 c0 -5 -5 -10 -11 -10
-5 0 -7 5 -4 10 3 6 8 10 11 10 2 0 4 -4 4 -10z m217 -15 c-7 -14 -20 -25 -31
-25 -14 0 -16 3 -7 13 6 8 8 17 4 21 -4 4 0 4 10 0 10 -3 17 -1 17 5 0 6 4 11
9 11 5 0 4 -11 -2 -25z m399 -8 c16 -9 7 -37 -11 -37 -7 0 -15 -4 -17 -10 -1
-5 -18 -12 -35 -16 -46 -9 -44 17 4 65 27 27 37 32 41 21 3 -8 11 -18 18 -23z
m112 16 c4 -15 -14 -18 -23 -3 -3 5 -12 7 -20 3 -8 -3 -15 -1 -15 4 0 15 53
10 58 -4z m402 7 c0 -5 -4 -10 -10 -10 -5 0 -10 5 -10 10 0 6 5 10 10 10 6 0
10 -4 10 -10z m-1170 -15 c0 -8 -9 -15 -20 -15 -11 0 -20 7 -20 15 0 8 9 15
20 15 11 0 20 -7 20 -15z m324 -1 c3 -8 2 -12 -4 -9 -6 3 -10 10 -10 16 0 14
7 11 14 -7z m1354 8 c9 -6 7 -14 -8 -30 -12 -12 -25 -22 -29 -22 -10 0 -21 24
-21 46 0 15 37 19 58 6z m500 -17 c3 -16 1 -18 -9 -7 -7 6 -26 12 -42 12 -17
0 -26 4 -22 11 4 5 21 9 38 7 23 -2 33 -9 35 -23z m-1771 9 c-3 -3 -12 -4 -19
-1 -8 3 -5 6 6 6 11 1 17 -2 13 -5z m453 -15 c0 -6 -4 -7 -10 -4 -5 3 -10 11
-10 16 0 6 5 7 10 4 6 -3 10 -11 10 -16z m220 17 c0 -2 -7 -6 -15 -10 -8 -3
-15 -1 -15 4 0 6 7 10 15 10 8 0 15 -2 15 -4z m670 -4 c0 -13 -12 -22 -22 -16
-10 6 -1 24 13 24 5 0 9 -4 9 -8z m-2203 -24 c-3 -8 -6 -5 -6 6 -1 11 2 17 5
13 3 -3 4 -12 1 -19z m1171 -2 c3 -12 -1 -17 -10 -14 -7 3 -15 13 -16 22 -3
12 1 17 10 14 7 -3 15 -13 16 -22z m260 -17 c-18 -11 -23 7 -6 25 11 12 13 12
16 -1 2 -9 -2 -19 -10 -24z m838 16 c-25 -19 -36 -19 -36 0 0 10 10 15 28 15
26 -1 26 -1 8 -15z m-1986 1 c0 -3 -4 -8 -10 -11 -5 -3 -10 -1 -10 4 0 6 5 11
10 11 6 0 10 -2 10 -4z m600 -19 c0 -12 9 -41 20 -62 18 -35 19 -41 5 -51 -8
-6 -12 -14 -8 -17 3 -4 1 -7 -5 -7 -16 0 -15 23 0 38 9 9 8 12 -5 12 -10 0
-17 -8 -17 -20 0 -16 -6 -19 -34 -18 -32 1 -34 3 -34 35 0 18 3 33 7 33 4 0
16 18 27 40 21 44 44 53 44 17z m963 -30 c-3 -5 -11 4 -19 18 -20 38 -17 45 5
15 11 -13 17 -28 14 -33z m592 33 c20 -23 17 -24 -19 -10 -14 5 -26 14 -26 20
0 17 26 11 45 -10z m107 -5 c-2 -14 -11 -25 -18 -25 -8 0 -14 10 -14 25 0 18
5 25 19 25 14 0 17 -6 13 -25z m-1792 -11 c0 -8 -6 -14 -12 -14 -9 0 -8 -4 2
-10 9 -6 10 -10 3 -10 -17 0 -25 17 -18 40 7 22 25 18 25 -6z m180 4 c0 -13
-32 -6 -37 9 -3 7 3 9 16 6 12 -3 21 -10 21 -15z m-265 -10 c-6 -22 -6 -22 10
-4 12 16 18 17 27 8 7 -7 9 -12 5 -12 -4 0 1 -10 13 -22 24 -26 26 -38 5 -38
-13 0 -20 -19 -16 -43 1 -5 -4 -7 -11 -4 -8 2 -12 18 -11 39 2 31 -2 36 -32
48 -43 17 -49 50 -9 50 21 0 24 -3 19 -22z m835 7 c0 -8 -4 -15 -10 -15 -5 0
-10 7 -10 15 0 8 5 15 10 15 6 0 10 -7 10 -15z m370 5 c0 -5 -2 -10 -4 -10 -3
0 -8 5 -11 10 -3 6 -1 10 4 10 6 0 11 -4 11 -10z m305 0 c-3 -5 -11 -10 -16
-10 -6 0 -7 5 -4 10 3 6 11 10 16 10 6 0 7 -4 4 -10z m-2000 -10 c4 -6 -5 -10
-20 -10 -15 0 -24 4 -20 10 3 6 12 10 20 10 8 0 17 -4 20 -10z m1191 -19 c-9
-13 -46 -15 -46 -1 0 14 34 30 44 20 4 -4 5 -13 2 -19z m378 14 c-4 -8 -13
-15 -21 -15 -13 0 -13 3 -3 15 7 8 16 15 21 15 5 0 6 -7 3 -15z m-1194 -16 c0
-5 -4 -9 -10 -9 -5 0 -10 7 -10 16 0 8 5 12 10 9 6 -3 10 -10 10 -16z m230 -5
c0 -14 -4 -23 -10 -19 -5 3 -10 15 -10 26 0 10 5 19 10 19 6 0 10 -12 10 -26z
m-910 7 c0 -11 -29 -35 -35 -29 -10 9 7 38 21 38 8 0 14 -4 14 -9z m1677 3
c-3 -3 -12 -4 -19 -1 -8 3 -5 6 6 6 11 1 17 -2 13 -5z m731 -3 c11 -7 11 -9
-1 -14 -16 -6 -27 0 -27 15 0 10 11 10 28 -1z m-358 -11 c0 -5 -5 -10 -11 -10
-5 0 -7 5 -4 10 3 6 8 10 11 10 2 0 4 -4 4 -10z m770 0 c0 -5 -4 -10 -10 -10
-5 0 -10 5 -10 10 0 6 5 10 10 10 6 0 10 -4 10 -10z m130 1 c0 -10 -25 -21
-48 -21 -15 1 -14 3 2 15 22 17 46 20 46 6z m-2479 -24 c-13 -13 -26 -3 -16
12 3 6 11 8 17 5 6 -4 6 -10 -1 -17z m165 -4 c-7 -7 -26 7 -26 19 0 6 6 6 15
-2 9 -7 13 -15 11 -17z m600 0 c-10 -10 -19 5 -10 18 6 11 8 11 12 0 2 -7 1
-15 -2 -18z m955 17 c10 -6 19 -20 19 -32 0 -21 0 -21 -25 2 -37 34 -34 51 6
30z m-564 -20 c-4 -15 0 -20 14 -20 10 0 19 -4 19 -9 0 -12 -39 -25 -47 -17
-4 3 -12 1 -20 -5 -23 -20 -15 21 10 47 27 29 31 30 24 4z m613 10 c0 -5 -4
-10 -10 -10 -5 0 -10 5 -10 10 0 6 5 10 10 10 6 0 10 -4 10 -10z m-2279 -14
c5 3 9 0 9 -6 0 -15 -23 -7 -26 8 -1 7 0 8 3 2 2 -5 9 -8 14 -4z m93 -1 c-4
-8 -12 -15 -20 -15 -20 0 -17 18 4 23 9 3 18 5 19 6 1 0 0 -6 -3 -14z m2396 1
c0 -17 -14 -29 -23 -20 -8 8 3 34 14 34 5 0 9 -6 9 -14z m-1295 -6 c-3 -5 -10
-10 -16 -10 -5 0 -9 5 -9 10 0 6 7 10 16 10 8 0 12 -4 9 -10z m125 0 c0 -5 -2
-10 -4 -10 -3 0 -8 5 -11 10 -3 6 -1 10 4 10 6 0 11 -4 11 -10z m463 -4 c4
-10 -5 -18 -25 -25 -37 -13 -42 -10 -33 18 7 24 50 29 58 7z m416 5 c21 -14 5
-41 -24 -41 -29 0 -45 27 -24 41 8 5 19 9 24 9 6 0 16 -4 24 -9z m-1649 -17
c0 -17 -22 -14 -28 4 -2 7 3 12 12 12 9 0 16 -7 16 -16z m1570 6 c0 -5 -4 -10
-9 -10 -6 0 -13 5 -16 10 -3 6 1 10 9 10 9 0 16 -4 16 -10z m304 -31 c-5 -8
-62 -4 -71 5 -3 3 -1 6 6 6 7 0 19 7 28 15 14 14 17 14 28 -2 7 -10 11 -21 9
-24z m150 34 c4 -4 -3 -15 -16 -25 -13 -10 -18 -17 -12 -16 14 3 74 -39 74
-51 0 -19 -36 -21 -68 -4 -22 12 -32 24 -29 35 3 9 0 19 -6 21 -6 2 -1 13 11
25 23 23 34 27 46 15z m-2322 -25 c-6 -6 -15 -8 -19 -4 -4 4 -1 11 7 16 19 12
27 3 12 -12z m916 3 c3 -8 -1 -12 -9 -9 -7 2 -15 10 -17 17 -3 8 1 12 9 9 7
-2 15 -10 17 -17z m1462 4 c0 -8 -4 -15 -10 -15 -5 0 -10 7 -10 15 0 8 5 15
10 15 6 0 10 -7 10 -15z m-2790 -3 c0 -4 -5 -13 -12 -20 -9 -9 -8 -12 5 -12 9
0 17 -3 17 -7 0 -5 23 -21 50 -38 28 -16 50 -34 50 -40 -1 -15 -25 -45 -37
-45 -14 0 -53 35 -53 49 0 16 -38 13 -47 -4 -8 -13 -11 -13 -28 -1 -17 12 -21
12 -32 -3 -12 -14 -13 -13 -11 9 2 20 9 25 30 25 33 0 38 16 9 27 -12 4 -21 3
-21 -2 0 -6 -4 -10 -10 -10 -5 0 -10 9 -10 20 0 14 7 20 21 20 12 0 23 8 26
20 3 13 14 20 29 20 13 0 24 -4 24 -8z m330 -2 c-8 -5 -19 -10 -25 -10 -5 0
-3 5 5 10 8 5 20 10 25 10 6 0 3 -5 -5 -10z m1892 -12 c2 -18 13 -26 52 -35
28 -7 54 -19 58 -28 5 -8 15 -15 23 -15 16 0 35 -30 35 -54 0 -8 -9 -20 -21
-26 -16 -9 -24 -8 -38 4 -16 15 -19 14 -31 -9 -8 -15 -19 -24 -28 -20 -7 3
-18 5 -23 5 -5 0 -9 7 -9 15 0 18 -23 19 -52 4 -16 -8 -24 -8 -35 4 -19 19 -9
37 20 37 12 0 29 5 37 10 13 8 13 11 1 19 -7 5 -10 14 -7 20 4 6 3 11 -3 11
-5 0 -9 18 -8 40 1 43 23 56 29 18z m273 -19 c4 -37 -9 -102 -20 -106 -6 -2
-18 9 -27 24 -13 21 -18 23 -18 11 0 -10 -7 -18 -15 -18 -9 0 -15 10 -15 26 0
18 5 25 18 23 34 -3 42 1 42 22 0 22 -14 22 -97 2 -14 -3 -23 -1 -23 6 0 6 11
11 25 11 14 0 25 4 25 8 0 14 54 29 79 22 17 -4 25 -14 26 -31z m-2570 21 c3
-5 2 -10 -4 -10 -5 0 -13 5 -16 10 -3 6 -2 10 4 10 5 0 13 -4 16 -10z m163 -9
c3 -8 -1 -12 -9 -9 -7 2 -15 10 -17 17 -3 8 1 12 9 9 7 -2 15 -10 17 -17z
m-313 -1 c3 -5 1 -10 -4 -10 -6 0 -11 5 -11 10 0 6 2 10 4 10 3 0 8 -4 11 -10z
m722 -24 c-4 -10 -13 -13 -23 -9 -15 6 -15 7 1 20 21 15 30 10 22 -11z m70 2
c-3 -8 -6 -5 -6 6 -1 11 2 17 5 13 3 -3 4 -12 1 -19z m-439 -26 c4 -25 -13
-30 -22 -6 -9 25 -7 36 7 32 6 -3 13 -14 15 -26z m1383 6 c11 -13 18 -17 17
-9 -2 8 5 17 15 19 22 5 21 -7 -3 -36 -22 -26 -40 -22 -40 9 0 11 -4 17 -10
14 -5 -3 -10 1 -10 9 0 22 8 20 31 -6z m1099 12 c0 -5 -4 -10 -9 -10 -6 0 -13
5 -16 10 -3 6 1 10 9 10 9 0 16 -4 16 -10z m-1255 -10 c-3 -5 -10 -10 -16 -10
-5 0 -9 5 -9 10 0 6 7 10 16 10 8 0 12 -4 9 -10z m688 -5 c-4 -15 -36 -12 -41
3 -3 9 3 13 19 10 13 -1 23 -7 22 -13z m70 -6 c18 -20 17 -20 -5 -17 -12 2
-24 11 -26 21 -5 23 10 22 31 -4z m-2233 1 c0 -5 -4 -10 -10 -10 -5 0 -10 5
-10 10 0 6 5 10 10 10 6 0 10 -4 10 -10z m360 1 c0 -5 10 -12 23 -15 l22 -7
-23 -10 c-26 -10 -46 -3 -37 12 9 13 -9 11 -23 -3 -9 -9 -12 -8 -12 4 0 16 13
26 38 27 6 1 12 -3 12 -8z m276 -18 c-10 -10 -19 5 -10 18 6 11 8 11 12 0 2
-7 1 -15 -2 -18z m70 14 c16 6 19 -13 3 -23 -11 -7 -29 13 -28 31 0 6 3 5 5
-2 3 -7 12 -9 20 -6z m1084 3 c0 -9 -72 -50 -87 -50 -4 1 8 14 27 30 34 30 60
39 60 20z m-222 -12 c18 -18 14 -38 -7 -38 -24 0 -33 13 -25 34 7 19 16 20 32
4z m-1598 -12 c0 -16 -18 -31 -27 -22 -8 8 5 36 17 36 5 0 10 -6 10 -14z
m1025 4 c-3 -5 -10 -10 -16 -10 -5 0 -9 5 -9 10 0 6 7 10 16 10 8 0 12 -4 9
-10z m-55 -10 c0 -5 -7 -10 -16 -10 -8 0 -12 5 -9 10 3 6 10 10 16 10 5 0 9
-4 9 -10z m-427 -12 c15 -7 27 -19 27 -25 0 -19 -17 -16 -32 5 -7 11 -20 21
-28 25 -8 3 -10 6 -4 6 5 1 22 -5 37 -11z m1345 0 c-5 -15 -58 -24 -58 -9 0
11 17 19 43 20 11 1 17 -4 15 -11z m196 -9 c15 -12 25 -28 22 -35 -4 -11 7
-14 47 -15 62 0 116 -17 131 -41 14 -23 -2 -37 -18 -15 -7 9 -18 17 -24 17
-16 0 -30 -30 -25 -51 3 -10 0 -34 -7 -53 l-12 -36 -26 18 c-32 22 -140 19
-149 -4 -2 -7 -25 -23 -49 -34 -24 -12 -44 -25 -44 -30 0 -4 -14 -13 -31 -19
-25 -9 -34 -8 -43 3 -6 7 -32 21 -58 31 -43 16 -47 20 -42 44 10 47 13 51 36
51 13 0 36 7 52 15 41 22 49 19 41 -12 l-7 -28 24 21 c13 12 31 24 41 27 20 7
22 28 5 45 -17 17 -8 21 69 42 43 12 58 19 40 19 -29 1 -43 21 -33 46 8 21 29
19 60 -6z m744 10 c-2 -6 -8 -10 -13 -10 -5 0 -11 4 -13 10 -2 6 4 11 13 11 9
0 15 -5 13 -11z m80 -7 c2 -7 -3 -12 -12 -12 -9 0 -16 7 -16 16 0 17 22 14 28
-4z m-2558 -37 c0 -31 -5 -47 -15 -51 -23 -9 -37 5 -25 27 7 13 7 19 0 19 -14
0 -13 23 2 38 25 25 38 13 38 -33z m143 20 c-3 -8 -9 -15 -14 -15 -10 0 -12
24 -3 33 11 11 24 -3 17 -18z m418 15 c27 -15 25 -42 -3 -38 -15 2 -24 11 -26
26 -4 25 1 27 29 12z m404 0 c-3 -5 -13 -10 -21 -10 -8 0 -14 5 -14 10 0 6 9
10 21 10 11 0 17 -4 14 -10z m665 1 c0 -6 -5 -13 -10 -16 -15 -9 -43 3 -35 15
8 13 45 13 45 1z m247 -6 c8 -21 4 -24 -50 -31 -56 -8 -64 9 -14 31 42 19 56
18 64 0z m-1557 -4 c0 -5 -7 -12 -16 -15 -24 -9 -28 -7 -14 9 14 17 30 20 30
6z m590 -6 c7 -8 8 -15 2 -15 -5 0 -15 7 -22 15 -7 8 -8 15 -2 15 5 0 15 -7
22 -15z m235 -4 c-3 -6 -11 -11 -17 -11 -6 0 -6 6 2 15 14 17 26 13 15 -4z
m-725 -22 c0 -5 -7 -9 -15 -9 -15 0 -20 12 -9 23 8 8 24 -1 24 -14z m544 1
c-10 -4 -23 -5 -28 -2 -5 3 -1 9 10 12 10 4 23 5 28 2 5 -3 1 -9 -10 -12z
m-1203 -3 c-1 -4 -1 -14 -1 -23 0 -8 -4 -12 -10 -9 -13 8 -13 48 1 43 6 -2 10
-7 10 -11z m1354 3 c3 -5 -1 -10 -9 -10 -8 0 -18 5 -21 10 -3 6 1 10 9 10 8 0
18 -4 21 -10z m545 0 c0 -5 -4 -10 -10 -10 -5 0 -10 5 -10 10 0 6 5 10 10 10
6 0 10 -4 10 -10z m-875 -9 c3 -5 1 -12 -4 -15 -12 -8 -41 3 -41 15 0 12 37
12 45 0z m749 -5 c-6 -16 -34 -30 -34 -18 0 10 22 32 32 32 4 0 5 -6 2 -14z
m816 -7 c0 -4 -7 -6 -15 -3 -11 5 -17 -3 -21 -25 -6 -31 -18 -39 -29 -22 -3 5
-1 12 5 16 5 3 10 15 10 25 0 10 6 20 13 23 15 5 37 -3 37 -14z m-2630 -4 c0
-8 -4 -15 -9 -15 -13 0 -22 16 -14 24 11 11 23 6 23 -9z m134 -60 c1 -38 -3
-55 -11 -55 -7 0 -16 -1 -20 -2 -4 -2 -11 11 -14 27 -6 29 -7 29 -8 4 0 -15
-8 -30 -18 -33 -15 -6 -15 -7 0 -19 14 -10 15 -18 6 -52 -13 -47 -23 -60 -38
-50 -8 4 -5 17 9 41 12 19 17 34 11 34 -6 0 -11 14 -11 30 0 25 -4 30 -24 30
-30 0 -56 24 -56 52 0 19 4 20 63 14 56 -5 63 -4 76 15 11 19 11 21 -4 15 -9
-3 -22 -3 -28 1 -7 5 0 10 18 14 41 8 48 -2 49 -66z m486 65 c0 -5 -7 -10 -16
-10 -8 0 -12 5 -9 10 3 6 10 10 16 10 5 0 9 -4 9 -10z m380 0 c0 -5 7 -10 15
-10 8 0 15 -4 15 -9 0 -5 3 -16 6 -25 4 -11 1 -16 -10 -16 -9 0 -19 7 -22 15
-4 8 -10 12 -15 9 -5 -3 -9 6 -9 20 0 14 5 26 10 26 6 0 10 -4 10 -10z m524 3
c3 -4 -7 -19 -24 -34 -16 -15 -30 -37 -30 -48 0 -12 -4 -21 -10 -21 -5 0 -10
15 -10 33 0 48 49 95 74 70z m76 -22 c0 -16 -65 -71 -83 -71 -11 0 12 42 41
72 27 29 42 28 42 -1z m-933 -3 c-3 -8 -6 -5 -6 6 -1 11 2 17 5 13 3 -3 4 -12
1 -19z m-269 -7 c3 -8 -1 -12 -9 -9 -7 2 -15 10 -17 17 -3 8 1 12 9 9 7 -2 15
-10 17 -17z m67 8 c12 -19 -5 -23 -22 -6 -16 16 -16 17 -1 17 9 0 20 -5 23
-11z m473 -6 c-4 -22 -22 -20 -26 1 -2 10 3 16 13 16 10 0 15 -7 13 -17z
m-758 -9 c0 -17 -22 -14 -28 4 -2 7 3 12 12 12 9 0 16 -7 16 -16z m1560 7 c0
-11 -29 -35 -35 -29 -10 9 7 38 21 38 8 0 14 -4 14 -9z m-1510 -11 c0 -5 -2
-10 -4 -10 -3 0 -8 5 -11 10 -3 6 -1 10 4 10 6 0 11 -4 11 -10z m550 1 c0 -12
-29 -35 -36 -28 -11 10 5 37 21 37 8 0 15 -4 15 -9z m350 -11 c0 -5 -4 -10 -9
-10 -6 0 -13 5 -16 10 -3 6 1 10 9 10 9 0 16 -4 16 -10z m1208 1 c32 -16 92
-32 100 -27 13 8 1 -46 -16 -71 -18 -28 -26 -29 -53 -2 -17 17 -23 18 -29 8
-7 -10 -11 -10 -24 0 -14 12 -16 10 -17 -10 -1 -13 -1 -27 0 -31 1 -10 -84 -1
-107 11 -11 6 -22 19 -25 30 -4 15 2 20 29 26 27 5 34 11 34 29 0 30 9 37 30
26 13 -7 20 -6 24 5 6 17 28 19 54 6z m-1633 -26 c0 -10 -6 -20 -12 -22 -8 -3
-13 5 -13 22 0 17 5 25 13 23 6 -3 12 -13 12 -23z m380 15 c-3 -5 -11 -10 -16
-10 -6 0 -7 5 -4 10 3 6 11 10 16 10 6 0 7 -4 4 -10z m1575 -19 c0 -22 -58
-47 -73 -32 -12 12 0 31 19 31 8 0 14 5 14 10 0 6 9 10 20 10 13 0 20 -7 20
-19z m-2285 -1 c3 -5 2 -10 -4 -10 -5 0 -13 5 -16 10 -3 6 -2 10 4 10 5 0 13
-4 16 -10z m725 0 c0 -5 -7 -10 -16 -10 -8 0 -12 5 -9 10 3 6 10 10 16 10 5 0
9 -4 9 -10z m307 -7 c3 -10 13 -26 21 -35 14 -16 13 -18 -1 -18 -13 0 -15 -5
-8 -23 10 -27 -10 -84 -33 -93 -22 -9 -126 62 -126 86 0 11 7 20 16 20 8 0 12
5 9 10 -9 15 5 52 18 47 7 -2 12 -12 12 -23 0 -14 8 -20 34 -22 l34 -3 -22 26
c-11 15 -18 31 -15 36 10 16 54 10 61 -8z m-982 -3 c3 -5 1 -10 -4 -10 -6 0
-11 5 -11 10 0 6 2 10 4 10 3 0 8 -4 11 -10z m415 0 c0 -9 -31 -30 -44 -30
-14 0 -4 29 12 33 29 8 32 7 32 -3z m810 -10 c0 -11 -2 -20 -4 -20 -2 0 -6 9
-9 20 -3 11 -1 20 4 20 5 0 9 -9 9 -20z m-717 -7 l32 -18 -54 -3 c-61 -4 -89
12 -50 27 33 13 36 13 72 -6z m127 13 c0 -3 -4 -8 -10 -11 -5 -3 -10 -1 -10 4
0 6 5 11 10 11 6 0 10 -2 10 -4z m98 -23 c2 -8 -5 -13 -17 -13 -14 0 -21 -6
-21 -19 0 -25 -63 -65 -90 -56 -12 4 -20 2 -20 -5 0 -7 9 -14 20 -17 11 -3 20
-14 20 -24 0 -10 5 -21 10 -24 6 -3 10 1 10 9 0 9 7 16 15 16 11 0 15 -12 15
-44 0 -38 6 -52 40 -91 31 -36 39 -52 34 -69 -7 -24 -52 -86 -62 -86 -23 0
-55 165 -45 226 5 29 5 29 -11 8 -18 -24 -12 -71 25 -213 10 -41 19 -82 19
-91 0 -9 -22 -45 -50 -79 -27 -34 -50 -67 -50 -72 0 -15 -26 -10 -41 7 -10 13
-10 17 0 24 10 6 10 9 1 15 -8 5 -4 15 13 34 29 31 51 71 39 71 -12 0 -48 -40
-44 -49 6 -12 -68 -18 -86 -6 -23 15 -104 45 -123 45 -20 0 -23 54 -4 70 9 8
15 9 15 2 0 -6 -5 -14 -10 -17 -14 -9 -3 -25 17 -25 9 0 13 3 10 7 -4 3 -1 13
6 21 6 8 12 27 12 41 0 18 6 27 20 29 50 9 125 34 125 42 0 5 -12 10 -27 12
-35 4 -37 32 -3 36 14 2 33 11 43 19 18 17 23 58 8 67 -11 7 -101 -24 -160
-54 -38 -19 -47 -20 -67 -9 -19 10 -21 15 -12 26 9 11 9 17 -3 24 -22 14 -37
11 -49 -11 -13 -24 -38 -26 -47 -5 -4 11 -16 15 -36 13 -103 -10 66 81 183 98
56 9 69 14 53 19 -59 19 -6 45 92 45 57 0 82 4 103 19 64 44 78 50 101 48 14
-1 26 -8 29 -14z m1372 7 c0 -5 -5 -10 -11 -10 -5 0 -7 5 -4 10 3 6 8 10 11
10 2 0 4 -4 4 -10z m-2170 -33 c-1 -21 -1 -21 -15 -3 -8 10 -12 23 -9 28 9 14
24 -2 24 -25z m75 23 c3 -5 -1 -10 -9 -10 -9 0 -16 5 -16 10 0 6 4 10 9 10 6
0 13 -4 16 -10z m550 1 c3 -5 1 -12 -5 -16 -5 -3 -10 1 -10 9 0 18 6 21 15 7z
m1505 -6 c0 -8 -7 -15 -15 -15 -8 0 -15 7 -15 15 0 8 7 15 15 15 8 0 15 -7 15
-15z m-905 -5 c-3 -5 -10 -10 -16 -10 -5 0 -9 5 -9 10 0 6 7 10 16 10 8 0 12
-4 9 -10z m-1165 -34 c0 -14 -24 -29 -33 -19 -3 3 -3 11 0 19 7 18 33 18 33 0z
m740 -6 c0 -11 -6 -20 -14 -20 -9 0 -12 7 -9 20 3 11 9 20 14 20 5 0 9 -9 9
-20z m496 9 c8 -14 -11 -33 -25 -25 -11 7 -4 36 9 36 5 0 12 -5 16 -11z
m-1306 -9 c8 -5 11 -12 8 -16 -10 -9 -38 3 -38 16 0 12 10 13 30 0z m1985 0
c3 -5 -1 -10 -10 -10 -9 0 -13 5 -10 10 3 6 8 10 10 10 2 0 7 -4 10 -10z
m-2125 -11 c0 -10 -27 -19 -34 -12 -12 12 -5 22 14 20 11 -1 20 -4 20 -8z
m1770 -17 c0 -15 -2 -15 -10 -2 -13 20 -13 33 0 25 6 -3 10 -14 10 -23z m190
18 c0 -5 -4 -10 -10 -10 -5 0 -10 5 -10 10 0 6 5 10 10 10 6 0 10 -4 10 -10z
m-925 -10 c3 -5 -1 -10 -9 -10 -9 0 -16 5 -16 10 0 6 4 10 9 10 6 0 13 -4 16
-10z m875 0 c0 -5 -2 -10 -4 -10 -3 0 -8 5 -11 10 -3 6 -1 10 4 10 6 0 11 -4
11 -10z m-1452 -12 c-2 -7 -21 -21 -41 -31 -41 -21 -66 -15 -45 10 23 29 93
45 86 21z m2082 2 c0 -5 -2 -10 -4 -10 -3 0 -8 5 -11 10 -3 6 -1 10 4 10 6 0
11 -4 11 -10z m-1605 -6 c32 -13 68 -152 48 -188 -8 -15 -14 -12 -46 23 -31
34 -37 48 -37 86 0 30 -5 47 -16 53 -35 19 9 42 51 26z m-835 -24 c0 -5 -7
-10 -15 -10 -8 0 -15 5 -15 10 0 6 7 10 15 10 8 0 15 -4 15 -10z m145 -9 c-3
-6 -11 -11 -17 -11 -6 0 -6 6 2 15 14 17 26 13 15 -4z m1176 -10 c-20 -27 -20
-30 -4 -33 16 -3 15 -5 -4 -16 -12 -7 -29 -9 -38 -6 -14 6 -14 7 1 19 16 11
16 12 0 18 -9 4 -16 13 -16 21 0 15 18 23 58 25 l23 1 -20 -29z m414 19 c3 -5
1 -10 -4 -10 -6 0 -11 5 -11 10 0 6 2 10 4 10 3 0 8 -4 11 -10z m-711 -33 c11
-18 -7 -47 -30 -47 -18 0 -39 44 -31 64 7 19 45 8 61 -17z m938 21 c-9 -9 -15
-9 -24 0 -9 9 -7 12 12 12 19 0 21 -3 12 -12z m-792 -2 c0 -3 -4 -8 -10 -11
-5 -3 -10 -1 -10 4 0 6 5 11 10 11 6 0 10 -2 10 -4z m790 -32 c12 -12 10 -14
-18 -14 -18 0 -32 4 -32 9 0 5 -9 13 -20 16 -11 3 -20 10 -20 15 0 12 72 -9
90 -26z m-2160 9 c0 -19 -20 -26 -26 -9 -3 9 -10 13 -15 10 -5 -3 -9 -1 -9 4
0 6 11 9 25 8 14 0 25 -6 25 -13z m149 -12 c-15 -5 -22 6 -14 19 6 9 10 9 16
-1 5 -8 4 -15 -2 -18z m-372 -38 c-11 -10 -27 8 -27 30 l0 21 16 -22 c9 -13
14 -26 11 -29z m341 24 c2 -10 -3 -17 -12 -17 -10 0 -16 9 -16 21 0 24 23 21
28 -4z m1549 7 c-3 -3 -12 -4 -19 -1 -8 3 -5 6 6 6 11 1 17 -2 13 -5z m180 -5
c-14 -8 -22 -8 -30 0 -8 8 -3 11 19 11 25 -1 27 -2 11 -11z m-1577 -18 c0 -17
-12 -41 -21 -41 -10 0 -12 33 -2 43 9 10 23 9 23 -2z m-420 -15 c0 -7 9 -16
20 -19 27 -7 28 -57 1 -57 -21 0 -33 22 -25 45 4 8 1 15 -5 15 -6 0 -11 7 -11
15 0 8 5 15 10 15 6 0 10 -6 10 -14z m1875 4 c7 -11 -42 -26 -53 -16 -7 8 17
26 35 26 6 0 15 -4 18 -10z m-328 -26 c-12 -12 -87 -16 -87 -6 0 11 15 16 65
24 19 4 33 -8 22 -18z m215 14 c-9 -9 -15 -9 -24 0 -9 9 -7 12 12 12 19 0 21
-3 12 -12z m-1148 -31 c13 -20 8 -25 -32 -33 -37 -7 -43 8 -15 38 19 21 32 20
47 -5z m-669 -7 c-3 -5 -10 -10 -16 -10 -5 0 -9 5 -9 10 0 6 7 10 16 10 8 0
12 -4 9 -10z m351 -15 c14 -14 23 -31 21 -38 -2 -7 2 -20 11 -29 13 -16 12
-20 -9 -37 l-24 -20 23 -1 c13 0 20 -4 17 -10 -8 -12 -25 -13 -44 -1 -12 8
-12 13 2 34 12 18 13 27 4 36 -6 6 -7 11 -2 11 4 0 -2 9 -14 19 -23 20 -37 61
-20 61 5 0 21 -11 35 -25z m64 10 c0 -8 -4 -15 -10 -15 -5 0 -10 7 -10 15 0 8
5 15 10 15 6 0 10 -7 10 -15z m1045 5 c-3 -5 -12 -10 -18 -10 -7 0 -6 4 3 10
19 12 23 12 15 0z m400 0 c3 -5 -2 -10 -12 -10 -11 0 -24 -5 -30 -11 -13 -13
-43 -5 -43 12 0 7 10 9 25 7 14 -3 25 -1 25 3 0 12 27 11 35 -1z m-1105 -21
c7 -11 9 -23 7 -26 -8 -7 -67 26 -67 37 0 19 49 10 60 -11z m-710 2 c0 -6 -4
-13 -10 -16 -5 -3 -10 1 -10 9 0 9 5 16 10 16 6 0 10 -4 10 -9z m220 -25 c0
-24 -16 -43 -27 -32 -8 8 6 56 17 56 6 0 10 -11 10 -24z m570 4 c0 -5 -7 -10
-16 -10 -8 0 -12 5 -9 10 3 6 10 10 16 10 5 0 9 -4 9 -10z m1160 2 c0 -5 -9
-17 -20 -27 -16 -14 -20 -15 -20 -4 0 16 19 39 32 39 4 0 8 -4 8 -8z m-1896
-17 c-4 -8 -10 -15 -15 -15 -5 0 -9 7 -9 15 0 8 7 15 15 15 9 0 12 -6 9 -15z
m532 -5 c1 -31 -15 -48 -44 -45 -37 2 -55 14 -48 31 3 7 -3 18 -12 24 -12 7
-1 9 43 7 45 -2 60 -6 61 -17z m64 11 c0 -12 -29 -23 -41 -15 -18 10 -9 24 16
24 14 0 25 -4 25 -9z m798 -3 c-3 -7 -15 -14 -29 -16 -23 -2 -23 -2 -5 13 24
18 39 20 34 3z m151 -4 c2 -2 1 -10 -2 -19 -5 -10 -20 -15 -50 -15 -52 0 -60
6 -46 32 9 16 17 18 52 13 23 -4 44 -9 46 -11z m61 6 c0 -5 0 -12 0 -15 0 -14
-13 -8 -16 8 -1 9 2 17 7 17 5 0 9 -4 9 -10z m-1372 -23 c2 -11 -3 -17 -16
-17 -26 0 -34 11 -20 27 14 17 32 12 36 -10z m405 3 c6 -23 20 -26 39 -6 8 7
36 14 63 14 28 0 68 2 89 4 22 2 41 -2 43 -8 6 -18 -60 -47 -96 -42 -24 3 -35
0 -42 -13 -5 -11 -16 -16 -24 -13 -11 5 -14 0 -13 -17 2 -17 -3 -24 -22 -30
-38 -11 -110 -10 -110 1 0 6 5 10 10 10 6 0 10 5 10 11 0 5 -10 9 -22 7 -16
-2 -24 3 -26 16 -4 17 1 18 37 13 23 -3 41 -1 41 4 0 5 -7 9 -16 9 -13 0 -14
3 -5 13 6 8 8 17 5 20 -9 8 5 27 20 27 8 0 16 -9 19 -20z m-592 -26 c-11 -15
-21 -24 -21 -20 0 12 33 57 37 52 3 -3 -4 -17 -16 -32z m339 21 c7 -8 8 -15 2
-15 -5 0 -15 7 -22 15 -7 8 -8 15 -2 15 5 0 15 -7 22 -15z m-440 -22 c0 -10
-4 -14 -8 -8 -4 6 -11 13 -16 18 -5 4 -2 7 7 7 10 0 17 -8 17 -17z m1418 -1
c6 -18 -62 -82 -87 -82 -12 0 -21 5 -21 11 0 14 19 50 38 72 18 20 63 20 70
-1z m-1238 4 c0 -2 -7 -9 -15 -16 -12 -10 -15 -10 -15 4 0 9 7 16 15 16 8 0
15 -2 15 -4z m-210 -16 c0 -5 -4 -10 -10 -10 -5 0 -10 5 -10 10 0 6 5 10 10
10 6 0 10 -4 10 -10z m60 -5 c0 -8 -4 -15 -10 -15 -5 0 -7 7 -4 15 4 8 8 15
10 15 2 0 4 -7 4 -15z m240 -4 c0 -6 -4 -13 -10 -16 -5 -3 -10 1 -10 9 0 9 5
16 10 16 6 0 10 -4 10 -9z m280 -1 c0 -5 -7 -10 -15 -10 -8 0 -15 5 -15 10 0
6 7 10 15 10 8 0 15 -4 15 -10z m-153 -32 c-3 -8 -6 -5 -6 6 -1 11 2 17 5 13
3 -3 4 -12 1 -19z m123 -7 c0 -10 -6 -24 -14 -30 -11 -9 -15 -7 -19 11 -7 24
9 51 24 42 5 -3 9 -13 9 -23z m-280 -1 c0 -5 -4 -10 -10 -10 -5 0 -10 5 -10
10 0 6 5 10 10 10 6 0 10 -4 10 -10z m140 -16 c0 -8 -4 -12 -10 -9 -5 3 -10
10 -10 16 0 5 5 9 10 9 6 0 10 -7 10 -16z m211 -34 c5 0 9 -6 9 -13 0 -13 -88
-39 -103 -30 -9 5 36 43 51 43 5 0 13 10 17 23 l8 22 4 -22 c2 -13 9 -23 14
-23z m-151 9 c0 -12 -29 -24 -37 -16 -3 4 -3 13 0 21 6 16 37 11 37 -5z m310
1 c0 -5 -4 -10 -10 -10 -5 0 -10 5 -10 10 0 6 5 10 10 10 6 0 10 -4 10 -10z
m-440 -10 c0 -5 -7 -10 -15 -10 -9 0 -15 -9 -15 -21 0 -28 -34 -21 -38 8 -3
17 1 20 16 16 11 -2 23 0 26 6 9 14 26 14 26 1z m-93 -24 c-3 -7 1 -23 9 -35
9 -12 13 -30 9 -41 -9 -28 -29 -25 -22 2 4 13 0 29 -10 40 -16 18 -12 48 8 48
6 0 9 -6 6 -14z m-78 -20 c-2 -2 -15 -6 -28 -8 -31 -4 -40 19 -9 24 22 4 47
-7 37 -16z m562 5 c10 -9 -9 -51 -26 -57 -20 -8 -65 4 -65 17 0 5 7 21 16 34
13 20 22 24 43 19 14 -4 29 -9 32 -13z m659 12 c0 -5 -9 -19 -19 -32 -13 -17
-23 -22 -39 -16 -30 9 -27 31 6 43 34 13 52 14 52 5z m140 -2 c0 -14 -9 -18
-59 -26 -51 -8 -50 9 2 24 43 12 57 13 57 2z m-1112 -20 c3 -8 -1 -12 -9 -9
-7 2 -15 10 -17 17 -3 8 1 12 9 9 7 -2 15 -10 17 -17z m470 -30 c15 -10 44
-24 66 -32 58 -21 76 -97 36 -149 -11 -14 -20 -31 -20 -38 0 -24 -55 -35 -169
-34 -63 1 -117 5 -120 9 -3 4 -24 16 -46 26 -37 18 -39 20 -20 33 10 8 29 14
42 14 27 0 32 20 6 21 -12 0 -13 2 -5 6 7 3 17 16 23 30 10 26 62 53 104 53
21 0 43 8 74 28 3 1 -11 16 -30 33 l-34 30 33 -5 c19 -3 46 -14 60 -25z m-80
-8 c2 -8 -5 -14 -17 -14 -12 -1 -25 -2 -31 -3 -5 -1 -9 4 -7 9 1 6 5 9 10 8 4
-2 7 2 7 8 0 14 32 7 38 -8z m432 7 c0 -5 -4 -10 -10 -10 -5 0 -10 5 -10 10 0
6 5 10 10 10 6 0 10 -4 10 -10z m-843 -41 c-3 -10 0 -20 7 -23 12 -5 -20 -36
-39 -36 -16 0 -16 37 1 51 8 6 14 18 14 26 0 8 5 11 11 7 6 -3 9 -15 6 -25z
m87 15 c17 -17 13 -34 -9 -34 -15 0 -28 27 -19 41 7 12 10 12 28 -7z m-173
-34 c32 -18 24 -42 -13 -38 -25 2 -34 8 -36 26 -4 24 16 29 49 12z m209 -40
c0 -11 -2 -20 -3 -20 -2 0 -12 9 -22 20 -18 19 -17 20 3 20 15 0 22 -6 22 -20z
m-55 -60 c-3 -5 -13 -10 -21 -10 -8 0 -14 5 -14 10 0 6 9 10 21 10 11 0 17 -4
14 -10z m125 -46 c0 -25 19 -42 85 -78 28 -15 64 -38 80 -51 28 -22 29 -24 10
-31 -11 -4 -57 -21 -102 -39 l-82 -32 -33 46 c-28 39 -33 56 -36 113 -5 78 4
96 48 94 23 -1 30 -6 30 -22z m-280 -775 c0 -5 -9 -9 -20 -9 -22 0 -27 16 -7
23 15 5 27 -1 27 -14z m-86 -144 c3 -9 -1 -18 -10 -22 -19 -7 -26 0 -18 21 8
20 20 21 28 1z m-104 -40 c0 -8 -4 -15 -9 -15 -13 0 -22 16 -14 24 11 11 23 6
23 -9z m150 -460 c-7 -9 -15 -13 -17 -11 -7 7 7 26 19 26 6 0 6 -6 -2 -15z"/>
<path d="M1390 2410 c-13 -8 -13 -10 2 -10 9 0 20 5 23 10 8 13 -5 13 -25 0z"/>
<path d="M1258 2253 c7 -3 16 -2 19 1 4 3 -2 6 -13 5 -11 0 -14 -3 -6 -6z"/>
<path d="M455 2400 c-3 -5 1 -10 10 -10 9 0 13 5 10 10 -3 6 -8 10 -10 10 -2
0 -7 -4 -10 -10z"/>
<path d="M2641 2182 c0 -24 -6 -52 -11 -63 -7 -11 -7 -19 -1 -19 5 0 17 -3 26
-7 14 -5 16 -2 10 16 -4 13 -10 44 -15 69 l-8 47 -1 -43z"/>
<path d="M2533 1254 c-75 -27 -192 -170 -231 -283 -25 -70 -10 -145 38 -201
18 -20 33 -25 89 -28 48 -3 77 0 98 11 36 19 113 97 113 114 0 7 4 13 8 13 11
0 40 67 48 111 4 18 10 39 14 44 11 15 21 91 13 99 -4 4 -8 20 -9 36 -2 46
-10 58 -53 80 -47 23 -70 24 -128 4z m99 -79 c26 -58 -40 -256 -107 -318 -37
-34 -58 -41 -100 -33 -61 12 -70 83 -22 185 12 25 24 48 28 51 3 3 20 26 39
53 59 84 138 114 162 62z"/>
<path d="M1235 1240 c-23 -25 -5 -50 36 -50 16 0 29 -4 29 -10 0 -5 -13 -38
-30 -72 -16 -34 -30 -65 -30 -69 0 -5 -11 -32 -24 -61 -13 -29 -37 -83 -53
-119 -32 -70 -71 -109 -110 -109 -41 0 -81 27 -88 60 -17 75 48 148 150 170
77 17 95 26 95 51 0 68 -195 30 -273 -53 -45 -48 -57 -82 -57 -156 0 -64 2
-70 33 -99 45 -44 107 -59 175 -42 43 10 61 22 97 61 23 26 46 60 50 75 3 16
19 55 35 88 16 33 31 71 35 85 12 46 27 57 94 63 82 7 113 29 124 88 19 95
-18 119 -179 119 -78 0 -93 -3 -109 -20z m213 -73 c5 -26 -16 -47 -49 -47 -32
0 -34 6 -19 45 8 21 16 26 37 23 17 -2 29 -10 31 -21z"/>
<path d="M2057 1223 c-13 -21 -30 -56 -38 -78 -25 -73 -33 -80 -98 -80 -45 0
-67 -5 -88 -21 -59 -44 -81 -138 -43 -187 20 -25 24 -26 138 -26 65 1 124 4
131 8 7 5 11 19 9 32 -2 19 -10 25 -35 27 -18 2 -33 8 -33 15 0 10 28 77 102
238 33 73 34 102 1 107 -16 2 -28 -7 -46 -35z m-119 -235 c2 -15 -4 -40 -13
-57 -12 -24 -22 -31 -45 -31 -36 0 -47 28 -26 69 29 55 79 66 84 19z"/>
<path d="M2883 1245 c-13 -9 -23 -21 -23 -26 0 -13 -72 -186 -114 -274 -46
-97 -39 -115 47 -115 65 0 87 11 87 41 0 18 -19 29 -51 29 -24 0 -24 9 0 62
115 253 127 289 91 296 -8 1 -25 -5 -37 -13z"/>
<path d="M3583 1245 c-13 -9 -23 -22 -23 -29 0 -6 -18 -49 -40 -95 -22 -45
-40 -87 -40 -92 0 -6 -14 -41 -32 -80 -29 -65 -48 -83 -63 -59 -3 6 -31 10
-62 10 l-56 0 67 61 c96 88 88 109 -41 109 -77 0 -93 -6 -93 -36 0 -21 5 -24
35 -24 19 0 35 -3 35 -7 0 -4 -30 -35 -67 -69 -58 -54 -66 -65 -57 -81 9 -15
28 -18 119 -21 72 -2 112 1 121 9 11 9 18 9 26 1 28 -28 53 -13 87 50 33 59
35 61 50 41 26 -32 66 -85 72 -95 9 -14 40 -6 52 13 8 13 3 26 -21 57 -18 22
-32 44 -32 48 0 5 16 22 36 37 24 20 34 35 32 50 -4 29 -38 25 -83 -9 -19 -14
-38 -24 -44 -22 -5 1 6 37 24 78 18 41 38 87 45 102 23 55 -3 84 -47 53z"/>
<path d="M4646 1151 c-21 -23 -12 -49 20 -57 42 -11 72 34 42 64 -17 17 -42
15 -62 -7z"/>
<path d="M3010 1103 c-14 -4 -70 -108 -70 -130 0 -6 7 -16 15 -23 13 -11 20
-9 40 10 25 23 25 23 40 4 30 -40 10 -64 -55 -64 -51 0 -87 -26 -77 -55 5 -12
23 -15 80 -15 67 0 76 3 105 28 44 39 44 83 0 136 -17 21 -34 54 -37 74 -6 36
-14 43 -41 35z"/>
<path d="M1590 1062 c-37 -10 -65 -32 -89 -72 -27 -44 -27 -72 1 -121 l22 -39
64 0 c54 0 71 4 98 25 56 43 71 148 26 188 -20 19 -86 29 -122 19z m69 -84 c4
-12 6 -31 3 -41 -12 -45 -102 -48 -102 -4 0 55 82 92 99 45z"/>
<path d="M3795 1055 c-40 -20 -85 -93 -85 -137 0 -52 37 -88 90 -88 23 0 50 5
60 10 13 7 21 7 25 0 10 -16 101 -12 115 5 21 25 8 50 -28 53 -31 3 -44 24
-22 37 6 3 10 14 10 23 0 9 7 30 15 46 8 15 15 34 15 41 0 18 -26 26 -53 16
-12 -5 -31 -5 -42 0 -31 12 -67 10 -100 -6z m79 -41 c22 -8 20 -40 -5 -80 -22
-37 -57 -45 -79 -19 -15 18 -7 43 25 78 27 28 34 31 59 21z"/>
<path d="M4118 1059 c-10 -5 -18 -15 -18 -20 0 -6 -14 -39 -31 -75 -17 -35
-32 -79 -33 -96 -1 -29 2 -33 24 -33 21 0 31 12 60 66 46 87 57 99 91 99 34 0
38 -19 11 -58 -52 -77 -53 -112 -4 -112 22 0 33 8 49 38 12 20 31 55 43 77 25
44 36 55 63 55 24 0 22 -39 -5 -94 -30 -63 -17 -76 73 -76 66 0 69 1 75 26 8
30 -7 44 -48 44 -29 0 -29 3 4 76 28 62 -21 104 -99 85 -33 -9 -54 -9 -78 -1
-22 7 -46 8 -76 1 -28 -6 -48 -6 -53 0 -13 12 -26 11 -48 -2z"/>
<path d="M4621 1051 c-12 -12 -21 -28 -21 -36 0 -9 -13 -42 -30 -75 -35 -70
-37 -86 -11 -100 31 -16 126 -13 142 6 19 23 -1 48 -40 52 -17 2 -31 4 -31 6
0 1 10 22 22 47 41 85 20 151 -31 100z"/>
</g>
</svg>
